HIERARCHY
ROOT Hips
{
 OFFSET 0.000000 0.000000 0.000000
 CHANNELS 6 Xposition Yposition Zposition Yrotation Xrotation Zrotation
 JOINT Chest
 {
  OFFSET 0.000000 9.585900 0.002600
  CHANNELS 3 Yrotation Xrotation Zrotation
  JOINT Chest2
  {
   OFFSET 0.000000 9.601200 -0.005300
   CHANNELS 3 Yrotation Xrotation Zrotation
   JOINT Chest3
   {
    OFFSET 0.000000 9.561800 0.000000
    CHANNELS 3 Yrotation Xrotation Zrotation
    JOINT Chest4
    {
     OFFSET 0.000000 9.552100 0.000000
     CHANNELS 3 Yrotation Xrotation Zrotation
     JOINT Neck
     {
      OFFSET 0.000000 14.453000 0.000000
      CHANNELS 3 Yrotation Xrotation Zrotation
      JOINT Head
      {
       OFFSET 0.000000 8.936500 -0.011300
       CHANNELS 3 Yrotation Xrotation Zrotation
       End Site
       {
        OFFSET 0.000000 17.073600 -0.006000
       }
      }
     }
     JOINT RightCollar
     {
      OFFSET -2.921100 9.558500 0.000000
      CHANNELS 3 Yrotation Xrotation Zrotation
      JOINT RightShoulder
      {
       OFFSET -13.519700 0.000000 0.000000
       CHANNELS 3 Yrotation Xrotation Zrotation
       JOINT RightElbow
       {
        OFFSET 0.000000 -29.696600 0.000000
        CHANNELS 3 Yrotation Xrotation Zrotation
        JOINT RightWrist
        {
         OFFSET 0.000000 -24.004700 0.000000
         CHANNELS 3 Yrotation Xrotation Zrotation
         End Site
         {
          OFFSET 0.000000 -17.728500 0.000000
         }
        }
       }
      }
     }
     JOINT LeftCollar
     {
      OFFSET 2.921100 9.558500 0.000000
      CHANNELS 3 Yrotation Xrotation Zrotation
      JOINT LeftShoulder
      {
       OFFSET 13.519700 0.000000 0.000000
       CHANNELS 3 Yrotation Xrotation Zrotation
       JOINT LeftElbow
       {
        OFFSET 0.000000 -29.696600 0.000000
        CHANNELS 3 Yrotation Xrotation Zrotation
        JOINT LeftWrist
        {
         OFFSET 0.000000 -24.004700 0.000000
         CHANNELS 3 Yrotation Xrotation Zrotation
         End Site
         {
          OFFSET 0.000000 -17.728500 0.000000
         }
        }
       }
      }
     }
    }
   }
  }
 }
 JOINT RightHip
 {
  OFFSET -7.771700 -0.012900 -0.001300
  CHANNELS 3 Yrotation Xrotation Zrotation
  JOINT RightKnee
  {
   OFFSET 0.000000 -40.869800 0.001200
   CHANNELS 3 Yrotation Xrotation Zrotation
   JOINT RightAnkle
   {
    OFFSET 0.000000 -39.717900 0.002100
    CHANNELS 3 Yrotation Xrotation Zrotation
    JOINT RightToe
    {
     OFFSET 0.000000 -4.965400 11.033500
     CHANNELS 3 Yrotation Xrotation Zrotation
     End Site
     {
      OFFSET 0.000000 -1.423100 5.872300
     }
    }
   }
  }
 }
 JOINT LeftHip
 {
  OFFSET 7.771700 -0.012900 -0.001300
  CHANNELS 3 Yrotation Xrotation Zrotation
  JOINT LeftKnee
  {
   OFFSET 0.000000 -40.869800 0.001200
   CHANNELS 3 Yrotation Xrotation Zrotation
   JOINT LeftAnkle
   {
    OFFSET 0.000000 -39.717900 0.002100
    CHANNELS 3 Yrotation Xrotation Zrotation
    JOINT LeftToe
    {
     OFFSET 0.000000 -4.965400 11.033500
     CHANNELS 3 Yrotation Xrotation Zrotation
     End Site
     {
      OFFSET 0.000000 -1.423100 5.872300
     }
    }
   }
  }
 }
}
MOTION
Frames: 7
Frame Time: 0.008333
-20.315490 62.118807 12.264682 174.265025 -52.760759 -0.612928 4.908376 27.060351 1.733368 0.721278 4.668114 0.221787 1.170749 7.426721 0.410519 3.733817 21.922193 1.691669 0.218241 16.609661 0.752150 0.169531 -4.878398 1.326849 6.268957 3.880582 4.549424 1.954587 -9.374596 -14.319930 -77.950015 -46.962090 124.169780 1.954057 14.952138 -2.793959 -8.841100 1.934716 0.838510 -8.902172 -6.895392 15.737688 105.828313 -68.072286 -136.906888 15.147076 12.870496 0.450770 2.827718 -14.379345 -4.442920 -1.801109 60.983814 -5.085379 1.974854 -6.880694 10.618844 0.211958 -0.450181 0.105633 -2.363745 -11.271660 3.929313 25.574459 76.713488 26.227974 0.982196 -11.687470 -3.359626 0.219633 0.579430 0.098709
-20.317388 62.118843 12.262337 174.266675 -52.753136 -0.611880 4.905988 27.067590 1.740409 0.727203 4.685720 0.234142 1.164455 7.408209 0.396466 3.733229 21.924259 1.693232 0.221988 16.623790 0.746234 0.160802 -4.896992 1.323150 6.271906 3.877904 4.547514 1.962904 -9.384474 -14.327203 -77.932983 -46.961075 124.137568 1.965910 14.945051 -2.789394 -8.855484 1.939349 0.842600 -8.895083 -6.909239 15.736518 105.748497 -68.105524 -136.826210 15.142896 12.848963 0.455766 2.828436 -14.387222 -4.448457 -1.798549 60.990519 -5.080780 1.975115 -6.897149 10.617011 0.212810 -0.447018 0.105079 -2.372405 -11.278767 3.922473 25.613182 76.712081 26.262839 0.987218 -11.689444 -3.361694 0.216120 0.579255 0.096372
-20.319189 62.118870 12.260175 174.265355 -52.745127 -0.607490 4.898002 27.075202 1.742702 0.726100 4.686835 0.234029 1.170094 7.396516 0.388519 3.723729 21.939559 1.701982 0.234127 16.652085 0.739993 0.166070 -4.902900 1.302546 6.281652 3.864340 4.533804 1.974577 -9.391830 -14.326397 -77.887410 -46.957471 124.092628 1.973047 14.945602 -2.812011 -8.862962 1.960106 0.860020 -8.884465 -6.921003 15.738789 105.769656 -68.090954 -136.841293 15.141720 12.854767 0.478360 2.830924 -14.397205 -4.453381 -1.782295 61.000741 -5.066688 1.966795 -6.913077 10.617177 0.214767 -0.446547 0.104085 -2.375410 -11.287193 3.917177 25.642595 76.713017 26.288972 0.988260 -11.690797 -3.360647 0.211270 0.576844 0.094111
-20.320937 62.118168 12.258847 174.267379 -52.731061 -0.604735 4.889151 27.069384 1.739330 0.722568 4.691197 0.236444 1.167792 7.403058 0.389914 3.710301 21.946358 1.705336 0.240212 16.654169 0.724851 0.182749 -4.886107 1.278307 6.310711 3.856076 4.518588 1.973626 -9.404406 -14.334595 -77.876418 -46.958233 124.075271 1.974592 14.960678 -2.829161 -8.855660 1.949404 0.857878 -8.875364 -6.922773 15.735402 105.768524 -68.089280 -136.840074 15.145242 12.868856 0.498699 2.828563 -14.412348 -4.462451 -1.765928 61.007975 -5.050071 1.964934 -6.932611 10.615144 0.212182 -0.442389 0.101575 -2.380938 -11.302100 3.909110 25.650540 76.713442 26.297442 0.993859 -11.690666 -3.364879 0.225921 0.576127 0.094036
-20.321161 62.117849 12.257707 174.263836 -52.719338 -0.604721 4.886570 27.064794 1.744023 0.724512 4.687933 0.233725 1.148345 7.428091 0.408124 3.706427 21.937289 1.695060 0.242382 16.666650 0.714319 0.196621 -4.877401 1.250165 6.336369 3.852479 4.500995 1.980657 -9.413553 -14.343792 -77.884726 -46.958151 124.065452 1.975623 14.976532 -2.844458 -8.855163 1.943210 0.856107 -8.858033 -6.925687 15.728102 105.736287 -68.094789 -136.814005 15.147633 12.874300 0.513725 2.828998 -14.423573 -4.461607 -1.754324 61.011907 -5.036501 1.957692 -6.955637 10.608918 0.215138 -0.433844 0.102538 -2.382041 -11.314109 3.908484 25.643263 76.715989 26.288869 1.025466 -11.690479 -3.374257 0.219386 0.575915 0.098554
-20.321504 62.117450 12.256921 174.261849 -52.706605 -0.603292 4.875518 27.066883 1.747809 0.722435 4.689280 0.234584 1.144358 7.430273 0.410252 3.701021 21.935080 1.692442 0.244307 16.673139 0.702703 0.208487 -4.831503 1.217041 6.372544 3.858172 4.499435 1.965558 -9.430306 -14.361803 -77.883732 -46.961253 124.055714 1.978265 14.999841 -2.847059 -8.854543 1.936619 0.851819 -8.844476 -6.925112 15.724713 105.677361 -68.105413 -136.764411 15.143775 12.852899 0.517375 2.827549 -14.434006 -4.466049 -1.737323 61.013878 -5.016396 1.957394 -6.986935 10.596520 0.210041 -0.412943 0.108430 -2.383300 -11.327093 3.907274 25.644082 76.716996 26.293703 1.018342 -11.692153 -3.377124 0.216091 0.575326 0.098480
-20.322133 62.117435 12.256089 174.265261 -52.696248 -0.602204 4.852657 27.077834 1.749327 0.719855 4.690034 0.235510 1.150712 7.419265 0.401016 3.695382 21.935953 1.693696 0.245129 16.680701 0.692310 0.213733 -4.817499 1.197549 6.393239 3.858167 4.489378 1.957327 -9.438008 -14.367985 -77.874433 -46.969661 124.041675 1.987771 15.009868 -2.852035 -8.848126 1.928048 0.841302 -8.839700 -6.915703 15.731294 105.638797 -68.109795 -136.735294 15.142365 12.839130 0.523384 2.823643 -14.445767 -4.472977 -1.726358 61.020499 -5.004160 1.955197 -7.002807 10.591337 0.212139 -0.407795 0.108761 -2.391263 -11.338626 3.900238 25.666257 76.715997 26.313825 1.018090 -11.689391 -3.374760 0.192927 0.571497 0.093859
